<svg id="visual" viewBox="0 0 900 600" width="900" height="600" xmlns="http://www.w3.org/2000/svg" xmlns:xlink="http://www.w3.org/1999/xlink" version="1.1"><path d="M0 484L12.5 480.7C25 477.3 50 470.7 75 474C100 477.3 125 490.7 150 492C175 493.3 200 482.7 225 489.2C250 495.7 275 519.3 300 529C325 538.7 350 534.3 375 531C400 527.7 425 525.3 450 526C475 526.7 500 530.3 525 533.7C550 537 575 540 600 532.3C625 524.7 650 506.3 675 503.5C700 500.7 725 513.3 750 515.2C775 517 800 508 825 509C850 510 875 521 887.5 526.5L900 532L900 601L887.5 601C875 601 850 601 825 601C800 601 775 601 750 601C725 601 700 601 675 601C650 601 625 601 600 601C575 601 550 601 525 601C500 601 475 601 450 601C425 601 400 601 375 601C350 601 325 601 300 601C275 601 250 601 225 601C200 601 175 601 150 601C125 601 100 601 75 601C50 601 25 601 12.5 601L0 601Z" fill="#002233BB" stroke-linecap="round" stroke-linejoin="miter"></path></svg>